<svg width="26" height="33" fill="none" xmlns="http://www.w3.org/2000/svg"><path d="M21.595 20.267a.997.997 0 01-.65-1.246.99.99 0 011.239-.654c.91.286 1.633.62 2.142.987.7.503 1.064 1.1 1.064 1.768 0 1.308-1.54 2.355-4.029 2.991-2.103.537-4.991.87-8.166.87-3.174 0-6.063-.333-8.166-.87C2.54 23.477 1 22.43 1 21.123c0-.637.333-1.21.974-1.7.468-.357 1.128-.684 1.96-.966a.987.987 0 011.252.627.996.996 0 01-.624 1.258c-.631.214-1.1.439-1.395.663-.12.092-.183.102-.183.117 0 .274.968.659 2.534 1.059 1.951.498 4.665.807 7.677.807 3.013 0 5.726-.308 7.678-.807 1.565-.4 2.534-.785 2.534-1.059 0-.01-.079-.04-.228-.147-.339-.244-.872-.484-1.584-.707v0z" fill="#fff" stroke="#0A6397" stroke-width=".6"/><path d="M23.67 25.089a.986.986 0 011.344.385.997.997 0 01-.383 1.352c-1.099.614-2.776 1.11-4.786 1.445-1.961.327-4.256.51-6.642.51-2.405 0-4.712-.185-6.68-.516-2.013-.338-3.691-.84-4.785-1.461a.996.996 0 01-.376-1.352.984.984 0 011.344-.378c.885.503 2.34.925 4.143 1.228 1.849.31 4.042.485 6.354.485 2.3 0 4.483-.173 6.325-.48 1.792-.298 3.246-.717 4.142-1.218h0zM12.999 1c2.846 0 5.425 1.161 7.291 3.037a10.367 10.367 0 013.02 7.333 10.37 10.37 0 01-3.02 7.333A10.251 10.251 0 0113 21.74a10.254 10.254 0 01-7.292-3.037 10.367 10.367 0 01-3.02-7.333 10.37 10.37 0 013.02-7.333A10.253 10.253 0 0112.999 1h0zm5.889 4.448a8.28 8.28 0 00-5.89-2.453 8.28 8.28 0 00-5.89 2.452A8.374 8.374 0 004.67 11.37c0 2.313.932 4.407 2.439 5.922a8.28 8.28 0 005.89 2.453c2.3 0 4.382-.937 5.889-2.453a8.373 8.373 0 002.439-5.922 8.373 8.373 0 00-2.44-5.922z" fill="#fff" stroke="#0A6397" stroke-width=".6"/><path d="M12.016 5.544a.99.99 0 01.992-.99.99.99 0 01.984.998l-.003.32a.99.99 0 01-.991.99.99.99 0 01-.984-.998l.002-.32zM9.644 14.41a1 1 0 01.287-1.379.988.988 0 011.371.288.893.893 0 00.764.419h1.946a.667.667 0 00.662-.666.843.843 0 00-.003-.101.653.653 0 00-.023-.099c-.114-.36-.901-.406-1.69-.452-1.344-.08-2.693-.159-3.352-1.518a2.683 2.683 0 01-.267-1.157 2.66 2.66 0 012.646-2.661h1.946a2.914 2.914 0 012.422 1.323 1 1 0 01-.287 1.378.988.988 0 01-1.371-.288.895.895 0 00-.764-.419h-1.946a.667.667 0 00-.598.952v.004c.149.31.916.354 1.68.399 1.47.086 2.937.172 3.463 1.84a2.709 2.709 0 01.128.8 2.66 2.66 0 01-2.646 2.66h-1.946a2.92 2.92 0 01-2.422-1.323h0zm4.351 2.725c0 .55-.444.997-.992.997a.995.995 0 01-.992-.997v-.214c0-.551.445-.997.992-.997.548 0 .992.446.992.997v.214zM23.67 28.89a.986.986 0 011.344.385.997.997 0 01-.384 1.352c-1.098.614-2.775 1.108-4.786 1.444-1.961.327-4.255.51-6.642.51-2.404 0-4.711-.185-6.679-.516-2.014-.338-3.692-.84-4.786-1.46a.996.996 0 01-.375-1.353.984.984 0 011.344-.377c.885.502 2.34.924 4.142 1.227 1.849.31 4.043.485 6.354.485 2.3 0 4.484-.172 6.325-.48 1.792-.299 3.246-.717 4.142-1.218v0z" fill="#fff" stroke="#0A6397" stroke-width=".6"/></svg>