<svg width="29" height="36" fill="none" xmlns="http://www.w3.org/2000/svg"><path d="M23.971 11.773a.995.995 0 01-.992-.998c0-.55.445-.997.992-.997.97 0 1.854.4 2.497 1.046l.002-.002a3.558 3.558 0 011.038 2.513v1.383a3.56 3.56 0 01-1.038 2.513l-.064.058a3.516 3.516 0 01-2.435.986.995.995 0 01-.992-.997c0-.551.445-.998.992-.998.409 0 .78-.158 1.057-.417l.04-.042c.281-.284.457-.674.457-1.103v-1.383a1.56 1.56 0 00-.458-1.102v-.004a1.541 1.541 0 00-1.096-.456v0zM28.17 34.35a.995.995 0 01-.992.998.995.995 0 01-.992-.998v-1.713a7.118 7.118 0 00-.94-3.549 7.23 7.23 0 00-2.598-2.63.997.997 0 01-.353-1.36.985.985 0 011.352-.355A9.213 9.213 0 0126.96 28.1a9.11 9.11 0 011.211 4.538v1.713h0zm-25.186 0a.996.996 0 01-.992.998A.995.995 0 011 34.35v-1.713a9.144 9.144 0 012.67-6.459 9.042 9.042 0 016.424-2.686h6.429c.547 0 .991.447.991.998 0 .55-.444.997-.991.997h-6.429a7.068 7.068 0 00-5.02 2.1 7.149 7.149 0 00-2.09 5.05v1.713h0z" fill="#fff" stroke="#0A6397" stroke-width=".6"/><path d="M21.08 13.748a6.628 6.628 0 00-1.902-4.669 6.43 6.43 0 00-4.594-1.928 6.43 6.43 0 00-4.593 1.928 6.626 6.626 0 00-1.902 4.669c0 1.825.727 3.476 1.902 4.668a6.43 6.43 0 004.594 1.927 6.43 6.43 0 004.593-1.927 6.626 6.626 0 001.902-4.668v0zm-.5-6.071a8.624 8.624 0 012.484 6.071 8.62 8.62 0 01-2.484 6.07 8.395 8.395 0 01-5.995 2.52c-2.34 0-4.46-.962-5.996-2.52a8.622 8.622 0 01-2.484-6.07c0-2.368.95-4.515 2.484-6.071a8.396 8.396 0 015.995-2.52c2.341 0 4.461.963 5.996 2.52z" fill="#fff" stroke="#0A6397" stroke-width=".6"/><path d="M25.577 7.558a.998.998 0 01-.391 1.352.987.987 0 01-1.345-.394 10.666 10.666 0 00-3.887-4.04 10.471 10.471 0 00-10.705-.023c-1.59.94-2.94 2.304-3.882 3.992a.987.987 0 01-1.348.381.999.999 0 01-.38-1.355A12.662 12.662 0 018.25 2.739 12.437 12.437 0 0114.585 1c2.281 0 4.475.628 6.376 1.762a12.667 12.667 0 014.616 4.796v0zM22.96 23.255a.987.987 0 01-1.399-.074 1 1 0 01.074-1.406c.385-.35.746-.727 1.077-1.13.341-.413.645-.84.907-1.274a.985.985 0 011.356-.335.996.996 0 01.333 1.363 12.733 12.733 0 01-1.07 1.517c-.392.476-.82.924-1.278 1.339v0zm-2.786 1.907a.985.985 0 01-1.325-.444.996.996 0 01.442-1.332l.235-.123v-.003l.237-.126a.984.984 0 011.344.378.996.996 0 01-.376 1.351l-.276.157-.001-.003-.28.145h0z" fill="#fff" stroke="#0A6397" stroke-width=".6"/><path d="M5.199 9.777c.547 0 .991.447.991.997a.995.995 0 01-.991.998c-.429 0-.817.174-1.097.455v.004a1.562 1.562 0 00-.457 1.103v1.383c0 .428.175.819.457 1.102l.04.042c.276.26.648.418 1.057.418.547 0 .991.447.991.997a.995.995 0 01-.991.998c-.94 0-1.799-.376-2.436-.986l-.063-.059a3.557 3.557 0 01-1.039-2.513v-1.382c0-.98.398-1.869 1.039-2.513l.002.002a3.52 3.52 0 012.497-1.047v.001z" fill="#fff" stroke="#F1F1F1" stroke-width=".6"/><path d="M15.836 33.988c0 .734-.592 1.33-1.322 1.33-.73 0-1.322-.596-1.322-1.33v-4.092c0-.735.592-1.33 1.322-1.33.73 0 1.322.596 1.322 1.33v4.092zm-2.051-5.832a.995.995 0 01-.992-.997c0-.55.444-.997.992-.997h1.561c.548 0 .992.446.992.997 0 .55-.444.997-.992.997h-1.561z" fill="#fff" stroke="#0A6397" stroke-width=".6"/></svg>