<svg width="195" height="51" fill="none" xmlns="http://www.w3.org/2000/svg"><g clip-path="url(#clip0)"><path d="M8.307 39.748H0V6.442h8.302l.043 9.664h7.25a3.198 3.198 0 012.128.71 3.402 3.402 0 011.19 1.96c.409 1.872 4.665 20.946 4.665 20.946h-8.525L11.346 23.09c-.33-1.513-.571-1.633-1.246-1.633H8.31l-.004 18.29zM33.36 25.253v-2.968a.82.82 0 01.228-.57.765.765 0 01.55-.235h3.117c.206 0 .404.085.55.236a.82.82 0 01.228.57v2.967H33.36zm12.971-6.46c0-.709-.271-1.387-.755-1.888a2.537 2.537 0 00-1.824-.782H27.65c-.684 0-1.34.281-1.824.782-.484.5-.756 1.18-.756 1.887v18.264c0 .708.272 1.387.756 1.888.484.5 1.14.781 1.824.781h16.089c.684 0 1.34-.28 1.824-.781s.755-1.18.755-1.888v-2.67H34.135a.765.765 0 01-.55-.235.82.82 0 01-.229-.57v-2.95h12.976V18.794zm11.802 20.942l-8.306.004V6.442h8.302l.005 33.293zm11.807 0l-8.307.004V6.442h8.303l.004 33.293zm24.787.008H86.45l-.021-18.24h-4.674v18.24H73.45V16.114h28.565a3.198 3.198 0 012.129.71 3.402 3.402 0 011.191 1.96C105.743 20.657 110 39.73 110 39.73h-8.526l-3.71-16.626c-.332-1.517-.568-1.633-1.248-1.633h-1.788v18.272zm16.742-20.95c0-.709.272-1.387.756-1.888a2.54 2.54 0 011.824-.782h16.089c.684 0 1.34.281 1.824.782.484.5.756 1.18.756 1.887v20.956h-18.652c-.684 0-1.34-.281-1.824-.782a2.716 2.716 0 01-.755-1.888v-9.16c0-.708.271-1.387.755-1.888a2.54 2.54 0 011.824-.782h10.384v-2.967a.82.82 0 00-.228-.57.766.766 0 00-.551-.236h-12.202v-2.683zm12.981 11.812h-3.896a.765.765 0 00-.55.236.82.82 0 00-.228.57v2.157a.82.82 0 00.228.57.765.765 0 00.55.235h3.896v-3.768zm20.108 9.135h-8.306V16.105h15.594a3.2 3.2 0 012.129.71 3.4 3.4 0 011.19 1.96c.409 1.872 4.665 20.946 4.665 20.946h-8.526l-3.706-16.631c-.331-1.513-.572-1.633-1.247-1.633h-1.788l-.005 18.281zm25.023 0h-8.307V16.105h15.595a3.196 3.196 0 012.128.71 3.402 3.402 0 011.191 1.96c.408 1.872 4.665 20.946 4.665 20.946h-8.526l-3.71-16.631c-.332-1.513-.572-1.633-1.247-1.633h-1.789V39.74z" fill="#E32119"/><path d="M5.177 49.363l.933-4.725h1.045L5.753 50.91H4.747l-1.152-4.583-1.178 4.583h-1.01L.004 44.638h1.044l.942 4.716 1.157-4.716h.881l1.148 4.725zm12.704-1.419a3.965 3.965 0 01-.31 1.62 2.386 2.386 0 01-.86 1.067 2.514 2.514 0 01-1.315.373 2.52 2.52 0 01-1.316-.373c-.39-.257-.7-.626-.89-1.063a3.834 3.834 0 01-.318-1.589v-.351a3.96 3.96 0 01.314-1.62 2.42 2.42 0 01.886-1.076 2.514 2.514 0 011.313-.372c.463 0 .916.128 1.314.372.39.255.698.623.886 1.059a3.93 3.93 0 01.318 1.61l-.022.343zm-1.053-.33c.034-.56-.1-1.117-.383-1.597a1.359 1.359 0 00-.474-.408 1.31 1.31 0 00-1.201 0 1.359 1.359 0 00-.474.408 2.742 2.742 0 00-.396 1.566v.36c-.032.562.104 1.12.391 1.598.12.18.281.327.47.426.188.099.398.147.61.139.209.01.418-.036.606-.132a1.25 1.25 0 00.468-.42 2.858 2.858 0 00.379-1.61l.004-.33zm9.45.89h-1.173v2.416h-1.058v-6.273h2.15a2.421 2.421 0 011.62.49c.194.173.346.39.446.635.099.245.142.51.126.775.013.374-.09.743-.292 1.054a1.87 1.87 0 01-.817.654l1.363 2.612v.057h-1.13l-1.235-2.42zm-1.173-.89h1.083c.302.02.6-.078.834-.276a.97.97 0 00.232-.345 1 1 0 00.07-.415 1.067 1.067 0 00-.276-.779c-.23-.2-.525-.302-.826-.285H25.11l-.004 2.1zm10.439 2.43h2.752v.89H34.49V44.66h1.054v5.384zm8.668.871v-6.273h1.793a2.73 2.73 0 011.427.37c.413.245.748.61.963 1.05.234.484.35 1.02.34 1.561v.316a3.424 3.424 0 01-.344 1.57c-.22.44-.561.803-.98 1.042-.448.25-.95.375-1.458.364h-1.741zm1.053-5.396v4.524h.688c.24.018.482-.021.705-.114.224-.094.424-.239.585-.424a2.39 2.39 0 00.451-1.54v-.346a2.459 2.459 0 00-.43-1.562 1.525 1.525 0 00-.562-.42 1.477 1.477 0 00-.684-.118h-.753zm14.425 3.844l.933-4.725h1.045l-1.401 6.273H59.26l-1.152-4.583-1.178 4.583h-1.01l-1.402-6.273h1.045l.941 4.716 1.157-4.716h.881l1.148 4.725zm8.96 1.553h-1.049v-6.273h1.05v6.273zm6.41-.001v-6.273h1.794a2.73 2.73 0 011.427.37c.413.245.748.61.963 1.05.234.484.35 1.02.34 1.561v.316a3.424 3.424 0 01-.344 1.57c-.22.44-.561.803-.98 1.042-.448.25-.95.375-1.458.364h-1.741zm1.054-5.396v4.524h.688c.24.018.482-.021.705-.114.224-.094.424-.239.585-.424a2.39 2.39 0 00.451-1.54v-.346a2.459 2.459 0 00-.43-1.562 1.525 1.525 0 00-.562-.42 1.477 1.477 0 00-.684-.118h-.753zm13.182 2.594h-2.49v1.93h2.912v.89h-3.965V44.66h3.934v.89h-2.88v1.73h2.49v.833zm14.679 1.931h2.752v.89h-3.805V44.66h1.053v5.384zm13.269-2.101a3.972 3.972 0 01-.31 1.62 2.391 2.391 0 01-.86 1.068 2.512 2.512 0 01-2.631 0 2.417 2.417 0 01-.89-1.064 3.828 3.828 0 01-.318-1.588v-.352a3.923 3.923 0 01.314-1.619c.185-.443.493-.82.885-1.081a2.513 2.513 0 012.627 0c.39.254.698.623.886 1.059a3.93 3.93 0 01.318 1.61l-.021.347zm-1.054-.329c.034-.56-.1-1.118-.382-1.597a1.36 1.36 0 00-.475-.408 1.306 1.306 0 00-1.201 0 1.357 1.357 0 00-.474.408 2.769 2.769 0 00-.396 1.566v.36c-.032.562.105 1.12.391 1.598.12.18.281.327.47.425.189.1.398.147.61.14.209.009.418-.037.606-.133s.349-.24.469-.42a2.86 2.86 0 00.378-1.61l.004-.329zm11.862 2.487a2.01 2.01 0 01-.912.672 3.6 3.6 0 01-1.324.227 2.538 2.538 0 01-1.35-.356 2.349 2.349 0 01-.907-1.023 3.684 3.684 0 01-.331-1.553v-.49a3.397 3.397 0 01.658-2.224 2.28 2.28 0 01.829-.62c.318-.138.662-.2 1.007-.18a2.362 2.362 0 011.608.52c.42.383.679.92.722 1.499h-1.032a1.24 1.24 0 00-.118-.472 1.194 1.194 0 00-.29-.384 1.138 1.138 0 00-.882-.279 1.213 1.213 0 00-.602.124c-.188.092-.35.232-.473.406a2.738 2.738 0 00-.382 1.548v.48a2.611 2.611 0 00.43 1.58c.134.183.31.33.511.426.202.097.423.142.645.13a1.47 1.47 0 001.148-.378v-1.228h-1.251V47.7h2.296v2.4zm7.396.815h-1.049v-6.273h1.049v6.273zm9.583-1.616a.78.78 0 00-.28-.636 3.334 3.334 0 00-1.014-.445 4.785 4.785 0 01-1.165-.507 1.578 1.578 0 01-.602-.585 1.65 1.65 0 01-.228-.821 1.576 1.576 0 01.153-.7c.104-.217.256-.406.444-.55a2.361 2.361 0 011.552-.49c.39-.008.776.075 1.131.24.317.15.587.39.778.69.187.293.286.637.284.988h-1.049a1.013 1.013 0 00-.297-.77 1.195 1.195 0 00-.859-.276 1.258 1.258 0 00-.8.227.755.755 0 00-.217.282.795.795 0 00-.067.354.705.705 0 00.31.574 3.49 3.49 0 001.014.445c.398.112.78.278 1.135.494.257.156.473.374.628.636.137.258.205.548.198.841.008.24-.041.48-.142.697a1.48 1.48 0 01-.439.549 2.454 2.454 0 01-1.577.445 2.878 2.878 0 01-1.209-.254 2.052 2.052 0 01-.86-.694 1.777 1.777 0 01-.305-1.036h1.054a1.039 1.039 0 00.339.827c.284.214.631.318.981.294.292.022.583-.06.825-.232a.731.731 0 00.208-.26.773.773 0 00.076-.327zm11.475-3.781h-1.891v5.397h-1.045v-5.397h-1.871v-.89h4.812l-.005.89zm7.026 5.397h-1.05v-6.273h1.05v6.273zm11.041-2.043c-.03.6-.288 1.163-.718 1.566a2.389 2.389 0 01-1.664.561 2.309 2.309 0 01-1.29-.356 2.316 2.316 0 01-.86-1.01 3.747 3.747 0 01-.313-1.522v-.587a3.769 3.769 0 01.305-1.566c.181-.427.48-.789.86-1.041a2.37 2.37 0 011.315-.365c.588-.03 1.165.17 1.617.56.427.417.683.987.714 1.594h-1.049a1.589 1.589 0 00-.383-.975 1.233 1.233 0 00-.899-.298 1.19 1.19 0 00-.592.122c-.185.09-.345.228-.465.399a2.671 2.671 0 00-.379 1.526v.556c-.033.542.09 1.082.353 1.553.113.173.267.314.448.407.181.094.382.137.584.127.335.025.667-.078.933-.29.238-.261.378-.602.395-.96h1.088zm9.231.427a.78.78 0 00-.28-.636 3.334 3.334 0 00-1.014-.445 4.785 4.785 0 01-1.165-.507 1.578 1.578 0 01-.602-.585 1.65 1.65 0 01-.228-.821 1.576 1.576 0 01.153-.7c.104-.217.256-.406.444-.55a2.362 2.362 0 011.553-.49c.389-.008.775.075 1.13.24.317.15.587.39.778.69.187.293.286.637.284.988h-1.049a.99.99 0 00-.292-.8 1.194 1.194 0 00-.86-.277 1.257 1.257 0 00-.8.227.765.765 0 00-.284.636.717.717 0 00.085.328c.054.1.131.185.225.246.314.202.656.352 1.015.445.397.112.779.278 1.135.494.256.155.472.374.627.636.137.257.205.548.198.841.008.24-.041.48-.142.697a1.477 1.477 0 01-.438.549 2.458 2.458 0 01-1.578.445 2.876 2.876 0 01-1.208-.254 2.041 2.041 0 01-.86-.694 1.777 1.777 0 01-.305-1.037h1.04c-.009.156.018.312.076.455.059.144.149.271.264.373.283.214.63.318.98.294.293.022.584-.06.826-.232a.744.744 0 00.292-.556zM186.956 0a7.867 7.867 0 00-4.477 1.405 8.283 8.283 0 00-2.967 3.742 8.605 8.605 0 00-.459 4.817 8.438 8.438 0 002.205 4.27 7.98 7.98 0 004.126 2.281 7.805 7.805 0 004.655-.474 8.124 8.124 0 003.616-3.071 8.54 8.54 0 001.358-4.632 8.497 8.497 0 00-2.362-5.893C191.14.882 189.092.002 186.956 0zm0 15.634a6.703 6.703 0 01-3.513-.988 6.895 6.895 0 001.402-.16 8.05 8.05 0 001.388-.476 4.166 4.166 0 001.66-1.152 6.317 6.317 0 011.213-1.121 9.043 9.043 0 011.444-.837 1.36 1.36 0 01.572-.142 2.546 2.546 0 001.015-.258c.258-.09.523-.164.791-.218.034 0 .086 0 .099-.067.013-.067-.099-.049-.146-.075a5.934 5.934 0 01-.998-.343 1.313 1.313 0 00-.666 0 2.41 2.41 0 00-.86.485c-.42.36-.889.653-1.393.867a4.417 4.417 0 01-1.14.316.714.714 0 01-.318 0c.346-.184.654-.437.907-.743.189-.268.391-.525.607-.77a9.832 9.832 0 011.083-.818l.89-.52c.18-.104.372-.182.572-.232.132-.036.268-.054.404-.053.379-.08.748-.21 1.096-.383.155-.049.327-.062.482-.129.026 0 .056-.053.034-.089l-.034-.022c-.404-.057-.8-.16-1.182-.307a1.463 1.463 0 00-.976.133c-.306.2-.572.445-.86.677l-.258.178a3.96 3.96 0 01-1.118.573 3.44 3.44 0 01-1.174.16.39.39 0 01-.344-.205 1.54 1.54 0 01-.142-.528c0-.116 0-.232-.03-.347a5.89 5.89 0 01.03-1.046c.071-.303.103-.614.095-.925-.073-.28-.43-.601-1.251-1.304a11.409 11.409 0 01-2.116-2.536c-.043-.08-.094-.2-.116-.2a.342.342 0 00-.142.098c-.171.24-.293.515-.357.807-.064.292-.07.594-.017.888a3.48 3.48 0 00.813 1.65c.233.272.435.57.602.89.12.26.167.55.137.837l-.645-.485s-.275-.196-.632-.476a6.743 6.743 0 01-1.32-1.184.04.04 0 00-.015-.011.05.05 0 00-.019-.004.05.05 0 00-.019.004.04.04 0 00-.015.011c-.056.036-.065.103-.078.196-.103.72-.137 1.553.25 2.158.239.356.511.687.812.987.194.196.404.388.611.57.221.154.375.392.43.663.015.289-.051.576-.189.827a2.02 2.02 0 01-.409.601c-.262.165-.623.062-.929.071-.21 0-.352.236-.43.4a1.076 1.076 0 00-.197.704c.042.25.126.491.249.711.043.058.103.143.185.12a.723.723 0 00.37-.182c.403-.449.93-.76 1.509-.89a2.841 2.841 0 00-.791.748c-.525.618-.998.89-1.72.734a.736.736 0 01-.262-.094 7.496 7.496 0 01-1.905-4.978c0-1.93.741-3.78 2.059-5.144a6.911 6.911 0 014.971-2.13 6.91 6.91 0 014.97 2.13 7.402 7.402 0 012.059 5.144 7.52 7.52 0 01-2.124 5.107 7.023 7.023 0 01-4.961 2.132v-.005z" fill="#004C99"/></g><defs><clipPath id="clip0"><path fill="#fff" d="M0 0h195v51H0z"/></clipPath></defs></svg>