<svg width="220" height="35" fill="none" xmlns="http://www.w3.org/2000/svg"><path fill-rule="evenodd" clip-rule="evenodd" d="M108.452 2.36c7.169 0 11.823 3.832 11.537 8.943H90.327c3.392-5.111 10.857-8.942 18.125-8.942zm11.439 9.733a13.04 13.04 0 01-.484 1.871l-3.589 9.833H99.242l2.711-7.572h4.073l.779-2.261.68-1.87h12.406zm-4.369 12.484l-3.195 8.943H99.725l3.293-8.943h12.504zm-13.953-12.484a311.97 311.97 0 01-4.172 11.704h-12.01l3.59-9.833c.206-.66.502-1.29.867-1.87h11.725zM97.21 24.578c-1.163 2.95-2.228 6.002-3.293 8.943H81.896l3.195-8.943h12.12zM34.888 3.141h25.688l-3.007 8.262H32.078l2.81-8.262zm15.896 8.953l-4.26 11.703H33.922l4.26-11.704h12.602zM46.23 24.577l-3.195 8.853H30.43l3.195-8.853H46.23zM204.104 2.361c8.332 0 14.151 3.64 15.511 9.042h-37.698c5.325-5.411 13.854-9.042 22.187-9.042zm15.709 9.732c.384 1.871.187 3.832-.582 5.902a17.445 17.445 0 01-3.59 5.802h-17.059c3.392-.79 6.587-3.051 7.563-5.802.967-2.85-.582-5.211-3.678-5.902h17.346zm-4.852 12.484c-5.236 5.412-13.855 9.143-22.286 9.143-8.333 0-14.249-3.731-15.6-9.143h37.886zm-38.083-.78c-.198-1.77 0-3.741.68-5.802.779-2.06 2.031-4.031 3.688-5.902h17.247c-3.589.69-6.883 3.051-7.948 5.902-.966 2.75.483 5.012 3.392 5.802h-17.059zm-22.779 9.633h-12.208l3.204-8.853h12.307l-2.031 5.502-1.272 3.35zm-8.727-9.633l4.26-11.704h12.306l-.966 2.461c.769-.59 1.548-1.18 2.228-1.77l.681-.69h12.602s0 .1-.098.1c-.78.88-1.45 1.96-2.426 2.65l-2.229 1.87-.099.2c3.097 0 4.556 3.052 3.393 6.883h-12.406c.099-1.57-.966-2.751-2.711-2.751-.385 0-.868.1-1.263.1l-.966 2.65h-12.306zm4.565-12.394l3.008-8.262h12.208l-3.008 8.262h-12.208zm14.624 0c.385-.49.681-.88 1.065-1.38 1.164-1.28 2.229-2.65 3.294-4.031l2.327-2.851h12.602c-1.065 1.28-2.031 2.65-3.096 3.831-1.164 1.47-2.327 2.95-3.589 4.421l-12.603.01zm10.275 13.174l-3.293 8.853h-12.208l3.195-8.853h12.306zM134.13 3.141h15.216l-3.008 8.262h-24.229v-.1c1.657-4.521 6.982-8.162 12.021-8.162zm.976 8.953c-.098.29-.187.59-.286.88l.099-.1c.187.49.286.98.483 1.47v.2l1.548 1.18.099.1h.098l3.294 2.361c1.844 1.08 2.81 3.151 2.524 5.602h-13.194v-.1l-.581-1.47-1.549-1.181-.197-.19s.099 0 .099-.1l-3.195-2.26c-.385-.2-.681-.49-.967-.69l-.295-.291c-1.263-1.28-1.746-3.24-1.263-5.411h13.283zm7.652 12.483c-.098.2-.187.49-.187.69-1.647 4.521-7.07 8.163-12.119 8.163h-16.567l3.195-8.853h25.678zm-72.005 1.97l-2.524 6.883H80.15l2.524-6.882c.197-.69.385-1.38.582-1.971h-12.12c0 .59-.197 1.28-.384 1.97zm12.593-2.75c.581-3.051-.198-5.312-1.943-5.602 2.909-1.67 5.039-3.73 6.005-6.091H75.112c.68.29.966.88.68 1.67-.385.98-1.548 1.77-2.613 1.77l-2.426.1-2.722 7.563 3.107.1v.49h12.208zm4.27-12.394c1.449-5.011-3.491-8.942-11.144-8.942-7.75 0-15.511 3.93-17.641 8.942h28.784zm-29.08.69l-4.26 11.704h11.823l4.26-11.704H58.535zm-4.557 12.484l-3.293 8.853h11.823l3.294-8.853H53.979zM7.07 1.28h.099-.099zm0 .1C2.712 5.502 0 11.603 0 18.285 0 24.877 2.524 30.77 6.686 34.9v.1-.1l4.842-5.702c.966 1.77 2.228 3.441 3.589 4.912l14.15-16.705L15.217 0c-1.647 1.77-3.107 3.831-4.172 6.192l9.694 12.093-9.2 10.913c-1.943-3.54-3.008-7.672-3.008-12.093 0-3.931.868-7.672 2.426-10.913L7.07 1.38z" fill="#33348E"/></svg>