<svg width="15" height="16" fill="none" xmlns="http://www.w3.org/2000/svg"><path fill-rule="evenodd" clip-rule="evenodd" d="M7.477 15.333a7.333 7.333 0 110-14.666 7.333 7.333 0 010 14.666zm4.933-3.917a6 6 0 10-9.866 0C3.294 10.426 5.058 10 7.477 10c2.42 0 4.183.425 4.933 1.416zm-.956 1.077c-.195-.701-1.597-1.16-3.977-1.16s-3.781.459-3.976 1.16A5.977 5.977 0 007.477 14c1.526 0 2.918-.57 3.977-1.507zM7.477 4C5.863 4 4.811 5.17 4.811 6.667 4.81 8.952 5.985 10 7.477 10c1.48 0 2.667-1.014 2.667-3.2 0-1.519-1.057-2.8-2.667-2.8zM6.144 6.667c0 1.513.546 2 1.333 2 .786 0 1.334-.468 1.334-1.867 0-.833-.523-1.467-1.334-1.467-.844 0-1.333.544-1.333 1.334z" fill="#000"/></svg>