<svg width="929" height="227" fill="none" xmlns="http://www.w3.org/2000/svg"><path d="M503.547 164.344h245.688" stroke="#2C373D" stroke-width="4" stroke-miterlimit="10" stroke-linecap="round" stroke-linejoin="round"/><path d="M836.771 107.669l-50.038 58.621c-2.314 2.675-3.653 5.837-4.14 9.364l-1.704 13.743H241.665a1.922 1.922 0 01-1.948-1.946v-17.878c0-.121 0-.365-.122-.365l-22.645-59.35a7.881 7.881 0 017.427-10.702h18.993a1.922 1.922 0 001.947-1.946V50.994c0-1.094.853-1.946 1.948-1.946h16.68a1.922 1.922 0 001.948-1.946v-9.12c0-1.096.852-1.947 1.948-1.947h9.131c1.096 0 1.948.852 1.948 1.946v9.121c0 1.095.852 1.946 1.948 1.946h62.092c1.095 0 1.948.852 1.948 1.946V97.21c0 1.094.852 1.946 1.948 1.946h13.636c.973 0 1.826.73 1.826 1.702.852 9.122 8.644 16.297 18.018 16.297h340.409c9.375 0 17.167-7.175 18.019-16.297.122-.973.852-1.702 1.826-1.702h92.042c4.139-.122 6.696 4.864 4.139 8.513z" stroke="#2C373D" stroke-width="4" stroke-miterlimit="10" stroke-linejoin="round"/><path d="M813.959 113.75a5.065 5.065 0 01-5.068 5.061 5.065 5.065 0 01-5.068-5.061 5.065 5.065 0 015.068-5.061 5.065 5.065 0 015.068 5.061z" stroke="#2C373D" stroke-width="3.5"/><path d="M523.634 88.818H469.7c-1.461 0-2.557 1.216-2.557 2.554V110.1c0 1.46 1.218 2.554 2.557 2.554h53.934c1.461 0 2.557-1.216 2.557-2.554V91.37c.122-1.337-1.096-2.553-2.557-2.553zm-64.039-27.851H405.66c-1.461 0-2.556 1.216-2.556 2.554v18.73c0 1.459 1.217 2.553 2.556 2.553h53.935c1.461 0 2.557-1.216 2.557-2.554V63.521c0-1.46-1.096-2.554-2.557-2.554zm64.039 0H469.7c-1.461 0-2.557 1.216-2.557 2.554v18.73c0 1.459 1.218 2.553 2.557 2.553h53.934c1.461 0 2.557-1.216 2.557-2.554V63.521c.122-1.46-1.096-2.554-2.557-2.554zm-64.039 27.85H405.66c-1.461 0-2.556 1.217-2.556 2.555V110.1c0 1.46 1.217 2.554 2.556 2.554h53.935c1.461 0 2.557-1.216 2.557-2.554V91.37c0-1.337-1.096-2.553-2.557-2.553zm240.94-27.85h-26.176c-1.461 0-2.557 1.216-2.557 2.554v46.58c0 1.46 1.218 2.554 2.557 2.554h26.176c1.461 0 2.557-1.216 2.557-2.554v-46.58c0-1.46-1.096-2.554-2.557-2.554zm-37.255 0h-26.176c-1.461 0-2.557 1.216-2.557 2.554v46.58c0 1.46 1.218 2.554 2.557 2.554h26.176c1.461 0 2.557-1.216 2.557-2.554v-46.58c0-1.46-1.096-2.554-2.557-2.554zm-37.62 0h-26.176c-1.461 0-2.557 1.216-2.557 2.554v46.58c0 1.46 1.218 2.554 2.557 2.554h26.176c1.461 0 2.556-1.216 2.556-2.554v-46.58c.122-1.46-1.095-2.554-2.556-2.554zm-37.621 0h-53.934c-1.461 0-2.557 1.216-2.557 2.554v18.73c0 1.459 1.218 2.553 2.557 2.553h53.934c1.461 0 2.557-1.216 2.557-2.554V63.521c0-1.46-1.217-2.554-2.557-2.554zm0 27.85h-53.934c-1.461 0-2.557 1.217-2.557 2.555V110.1c0 1.46 1.218 2.554 2.557 2.554h53.934c1.461 0 2.557-1.216 2.557-2.554V91.37c0-1.337-1.217-2.553-2.557-2.553z" fill="url(#paint0_linear)"/><path d="M335.899 57.683h-9.862v9.851h9.862v-9.85zm-15.34 0h-9.862v9.851h9.862v-9.85zm-15.219.243h-9.861v9.852h9.861v-9.852zm-15.219 0h-9.861v9.852h9.861v-9.852z" stroke="#2C373D" stroke-width="4" stroke-miterlimit="10" stroke-linejoin="round"/><path d="M236.674 99.034h86.441M295.479 2.225V48.44" stroke="#2C373D" stroke-width="4" stroke-miterlimit="10" stroke-linecap="round" stroke-linejoin="round"/><path d="M780.646 189.275c3.408-.121 6.817-1.094 9.861-2.797l1.339-.729c6.94-3.892 15.341-3.771 22.159.486 6.574 4.013 14.731 4.378 21.549.73l3.165-1.703m-16.922 39.283l-6.452-3.892c-6.697-4.013-14.975-4.135-21.793-.243l-1.34.73c-6.939 3.892-15.34 3.77-22.158-.487-6.574-4.013-14.731-4.378-21.549-.729l-3.166 1.702c-6.818 3.649-14.975 3.284-21.549-.729l-.244-.122a21.292 21.292 0 00-21.671-.608m-21.671-.365c-6.697-4.013-14.975-4.135-21.793-.243l-1.34.73c-6.939 3.891-15.34 3.77-22.158-.487-6.574-4.013-14.731-4.378-21.549-.73l-3.166 1.703m-442.434-50.107c-6.696-4.014-14.975-4.135-21.793-.243l-1.339.729c-6.939 3.892-15.34 3.77-22.158-.486-6.574-4.014-14.732-4.379-21.55-.73l-3.165 1.703c-6.818 3.648-14.975 3.283-21.55-.73l-.243-.122c-5.479-3.405-12.175-4.135-18.14-2.189-3.41 1.095-6.94 1.46-10.47 1.46H2.916m132.828 26.999l-1.339.73c-6.94 3.892-15.34 3.77-22.158-.486-6.575-4.014-14.732-4.379-21.55-.73-2.07 1.094-4.383 1.703-6.696 1.703H43.094" stroke="#008DD2" stroke-width="4" stroke-miterlimit="10" stroke-linecap="round" stroke-linejoin="round"/><path d="M926.744 186.478l-59.291-.243c-4.018 0-8.036-.851-11.932-2.189-5.6-1.946-11.809-1.46-17.166 1.338l-3.166 1.702" stroke="#008DD2" stroke-width="4" stroke-miterlimit="10" stroke-linecap="round" stroke-linejoin="round"/><defs><linearGradient id="paint0_linear" x1="403.097" y1="86.858" x2="703.141" y2="86.858" gradientUnits="userSpaceOnUse"><stop stop-color="#008DD2"/><stop offset="1" stop-color="#003C5F"/></linearGradient></defs></svg>