<svg width="275" height="85" fill="none" xmlns="http://www.w3.org/2000/svg"><path d="M249.76 78.847v1.5c.021 0 .042 0 .063-.002l-.063-1.498zm-63.674 0v-1.5a1.5 1.5 0 00-1.5 1.5h1.5zm-57.1 0h1.5a1.499 1.499 0 00-1.552-1.5l.052 1.5zm-40.055-3.04l-.383 1.45.017.004.366-1.455zm-20.82-6.933l-.553 1.394.007.003.547-1.397zM14.178 50.753l-.225-1.484a1.5 1.5 0 00-.12 2.943l.345-1.46zm9.375-12.04l-1.388.568.009.02 1.379-.589zM7.359 1.982L7.471.487A1.5 1.5 0 005.99 2.594l1.37-.61zm13.028.973l-.112 1.496h.005l.107-1.496zM34.022 9.16l-.987 1.13.003.002.984-1.132zm228.035 47.796l-1.24.844c.173.254.419.448.705.558l.535-1.402zm6.696 2.554l-.534 1.402.017.006.517-1.408zm-120.531 9.243h-1.5a1.5 1.5 0 001.234 1.476l.266-1.476zm0-6.446l-.243-1.48a1.5 1.5 0 00-1.257 1.48h1.5zm31.654 6.203h-1.5l.002.071 1.498-.071zm-16.558-10.216v-1.5a1.5 1.5 0 00-1.5 1.5h1.5zm8.645 0h1.5a1.5 1.5 0 00-1.5-1.5v1.5zm0 14.837v1.5a1.5 1.5 0 001.5-1.5h-1.5zm-8.645 0h-1.5a1.5 1.5 0 001.5 1.5v-1.5zM63.363 61.455l.344 1.46.01-.002.01-.003-.364-1.455zm2.8.122l.552-1.395-.069-.028-.07-.02-.412 1.443zm49.431 12.04v-1.5h-.009l.009 1.5zm4.504 5.23l.02 1.5 1.411-.019.067-1.41-1.498-.072zm-36.16-4.5l.395-1.448-.01-.002-.384 1.45zm-26.906-9.73l-.67 1.342.043.021.045.02.582-1.383zm.122-1.703l-.343-1.46-.034.008-.034.01.411 1.442zm72.272 11.692a1.5 1.5 0 101.799 2.4l-1.799-2.4zm2.36.105l-.899-1.2.899 1.2zm43.099-.08a1.5 1.5 0 100-3v3zm-42.613-15.365l.364 1.455a1.58 1.58 0 00.177-.056l-.541-1.4zm26.42-10.216l.541 1.399a1.499 1.499 0 00-.541-2.9v1.5zm52.23 3.892l-.198-1.487-.009.001.207 1.486zm-.487-6.933l-.195-1.487a1.5 1.5 0 00.195 2.987v-1.5zm.122 0l.231 1.482a1.5 1.5 0 00-.231-2.982v1.5zM13.568 50.752l-.173-1.49a1.5 1.5 0 00-1.042 2.37l1.215-.88zm10.47-1.216l-.043-1.5a1.505 1.505 0 00-.13.01l.174 1.49zm37.377-1.094l.044 1.5.01-.001-.053-1.5zm.61 5.108l.04 1.5.01-.001-.05-1.5zm-36.038.486l-.045 1.5h.008l.037-1.5zM15.15 52.942l-1.216.879a1.5 1.5 0 00.762.55l.454-1.43zm76.945 12.891l-.282-1.473a1.5 1.5 0 00-.017 2.943l.299-1.47zm43.22-1.702l-.342 1.46h.002l.34-1.46zm-2.069 4.986l.115 1.496h.002l-.117-1.496zM1.637 52.455l-.59-1.379a1.5 1.5 0 00.33 2.856l.26-1.477zm27.637-2.31l-.322 1.465.013.002.309-1.468zm-1.218 3.526l-.18-1.489h-.006l.186 1.49zm195.772 9.365h-1.5 1.5zM9.794 7.456l.075-1.498a1.5 1.5 0 00-1.444 2.111l1.369-.613zm14.975 33.445l-1.369.613a1.5 1.5 0 001.369.887v-1.5zm15.706-2.31l-1.285.774.013.021 1.272-.795zM23.308 10.13l1.284-.774a1.32 1.32 0 00-.019-.031l-1.265.806zm-3.774-2.188l-.075 1.498.075.002v-1.5zm16.192 25.215a1.5 1.5 0 000-3v3zm-2.313-3a1.5 1.5 0 000 3v-3zm-5.965-11.23a1.5 1.5 0 000-3v3zm-2.313-3a1.5 1.5 0 100 3v-3zM249.76 77.348h-63.674v3h63.674v-3zm-65.174 1.5c0 1.417-1.21 2.635-2.518 2.635v3c3.076 0 5.518-2.675 5.518-5.635h-3zm-2.518 2.635h-49.064v3h49.064v-3zm-49.064 0c-1.365 0-2.518-1.155-2.518-2.514h-3c0 3.02 2.499 5.514 5.518 5.514v-3zm-2.518-2.514v-.121h-3v.121h3zm-1.5-.121l-.052-1.5h-.003l-.013.001a92.8 92.8 0 01-1.052.028c-.696.016-1.71.033-2.975.043-2.532.019-6.068.004-10.084-.132-8.059-.273-17.941-1.03-25.51-2.936l-.732 2.91c7.893 1.986 18.039 2.75 26.141 3.024 4.066.138 7.644.153 10.207.134a204.951 204.951 0 004.105-.073h.019l-.051-1.5zm-39.673-4.491c-8.694-2.292-11.68-3.366-20.654-6.879l-1.094 2.794c9.045 3.54 12.146 4.656 20.983 6.986l.765-2.901zM68.666 67.48c-16.72-6.644-30.24-11.188-39.589-14.071a324.072 324.072 0 00-10.772-3.137 179.08 179.08 0 00-3.532-.919 36.41 36.41 0 00-.233-.056l-.012-.003h-.004l-.001-.001-.346 1.46-.345 1.46h.002a1.13 1.13 0 00.053.012l.173.042a174.215 174.215 0 013.461.9c2.435.66 6.032 1.677 10.672 3.108 9.279 2.863 22.725 7.38 39.365 13.993l1.108-2.788zM14.177 50.752l.226 1.483h.006l.012-.002.038-.007.133-.022a22.028 22.028 0 002.065-.489c1.284-.37 2.995-.986 4.59-1.964 1.587-.973 3.173-2.376 4.018-4.363.867-2.037.862-4.466-.334-7.265l-2.758 1.179c.934 2.187.823 3.756.332 4.912-.513 1.205-1.538 2.19-2.826 2.98-1.282.785-2.714 1.31-3.853 1.638a19.092 19.092 0 01-1.76.418 7.573 7.573 0 01-.093.016l-.02.003a.03.03 0 01-.002 0l.226 1.483zM24.94 38.144c-1.106-2.701-5.166-11.91-8.935-20.411A8074.943 8074.943 0 008.887 1.726l-.118-.264a284.552 284.552 0 00-.037-.084l-.002-.005-1.37.61-1.37.612.002.005.008.017.03.067.117.264A5412.679 5412.679 0 018.211 7.58c1.347 3.024 3.165 7.113 5.052 11.369 3.78 8.526 7.815 17.681 8.9 20.332l2.777-1.137zM7.248 3.479l13.027.973.223-2.992L7.471.487 7.248 3.48zm13.032.973c4.696.335 9.025 2.576 12.755 5.836L35.01 8.03c-4.062-3.55-8.986-6.174-14.517-6.57l-.213 2.993zm12.758 5.839c10.063 8.746 17.37 15.4 23.033 20.48 5.642 5.062 9.701 8.608 13.206 11.056 3.548 2.479 6.576 3.869 10.17 4.614 3.531.73 7.554.825 13.014.825v-3c-5.496 0-9.22-.103-12.405-.763-3.12-.646-5.776-1.84-9.061-4.135-3.329-2.326-7.251-5.743-12.92-10.83-5.649-5.066-12.982-11.745-23.069-20.511l-1.968 2.264zm59.424 36.975c13.937 0 36.884.06 60.215.122 23.33.06 47.042.121 62.507.121v-3c-15.46 0-39.168-.06-62.499-.121-23.329-.061-46.281-.122-60.224-.122v3zm122.722.243c6.765 0 16.273-.3 25.153.899 8.966 1.21 16.733 3.887 20.48 9.391l2.48-1.688c-4.532-6.658-13.506-9.454-22.558-10.676-9.138-1.234-18.928-.926-25.555-.926v3zm46.338 10.848l6.697 2.554 1.069-2.803-6.696-2.554-1.07 2.803zm6.714 2.56c1.029.378 2.152 1.436 2.817 2.964.648 1.492.798 3.302.058 5.088-1.469 3.545-6.867 7.776-21.413 8.379l.125 2.997c14.796-.613 21.876-4.957 24.06-10.228 1.086-2.623.855-5.283-.079-7.432-.918-2.113-2.58-3.867-4.534-4.584l-1.034 2.816zm-4.231-4.732h-14.123v3h14.123v-3zm-14.123 0c.072 0 .13.018.166.037.033.017.042.03.038.025a.16.16 0 01-.027-.05.27.27 0 01-.016-.093h-3c0 1.43 1.05 3.08 2.839 3.08v-3zm.161-.081v-2.068h-3v2.068h3zm0-2.068a.671.671 0 01-.149.42.948.948 0 01-.742.35v-3c-.729 0-1.29.376-1.625.807a2.327 2.327 0 00-.484 1.423h3zm-.891.77h9.253v-3h-9.253v3zm-93.238 13.808l-7.426-1.338-.532 2.952 7.426 1.338.532-2.952zm-6.192.138v-6.446h-3v6.446h3zm-1.258-4.965l7.427-1.217-.485-2.96-7.427 1.216.485 2.96zm26.664 7.965H161.37v3h13.758v-3zm-13.758 0c-3.312 0-5.926-2.614-5.926-5.919h-3a8.874 8.874 0 008.926 8.92v-3zm-5.926-5.919c0-3.305 2.614-5.918 5.926-5.918v-3a8.874 8.874 0 00-8.926 8.918h3zm5.926-5.918h13.758v-3H161.37v3zm13.758 0a3.251 3.251 0 013.248 3.243h3c0-3.36-2.718-6.243-6.248-6.243v3zm3.248 3.243v5.35h3v-5.35h-3zm.002 5.422c.078 1.63-1.357 3.172-3.25 3.172v3c3.464 0 6.412-2.835 6.247-6.314l-2.997.142zm-15.06-8.787h8.645v-3h-8.645v3zm7.145-1.5V73.13h3V58.293h-3zm1.5 13.337h-8.645v3h8.645v-3zm-7.145 1.5V58.293h-3V73.13h3zm-59.154-6.263l50.647-19.58-1.082-2.799-50.647 19.581 1.082 2.798zM63.727 62.91c.632-.158 1.322-.092 2.025.109l.823-2.885c-1.001-.286-2.259-.463-3.575-.135l.727 2.911zm1.885.061c5.737 2.269 26.988 12.27 49.99 12.146l-.017-3c-22.288.12-42.919-9.582-48.87-11.935l-1.103 2.79zm49.982 12.146c.808 0 1.563.399 2.14 1.105.585.717.908 1.665.866 2.553l2.996.143c.08-1.666-.51-3.333-1.538-4.593-1.037-1.27-2.595-2.208-4.464-2.208v3zm4.504 3.73l-.019-1.5h-.048a34.827 34.827 0 01-.765 0 114.87 114.87 0 01-2.332-.036 161.67 161.67 0 01-8.271-.431c-6.813-.528-15.75-1.643-24.33-3.98l-.788 2.894c8.83 2.405 17.972 3.54 24.886 4.077 3.462.268 6.376.387 8.428.439a117.592 117.592 0 003.198.037h.06l-.019-1.5zm-35.775-5.95c-11.81-3.13-21.205-7.341-26.707-9.662l-1.166 2.764c5.454 2.3 15.052 6.603 27.105 9.797l.768-2.9zm-26.62-9.622c.199.1.304.308.295.51a.636.636 0 01-.131.355.604.604 0 01-.301.217l-.823-2.885A2.36 2.36 0 0055 63.655a2.457 2.457 0 001.361 2.304l1.34-2.684zm-.206 1.1l6.21-1.46-.687-2.92-6.209 1.46.687 2.92zm73.728 12.631l1.461-1.094-1.799-2.401-1.461 1.095 1.799 2.4zm1.461-1.094c1.201-.9 2.346-1.282 3.848-1.282v-3c-2.15 0-3.927.592-5.647 1.88l1.799 2.402zm3.848-1.282h38.351v-3h-38.351v3zm-15.706-13.62h9.984v-3h-9.984v3zm9.984 0c.703 0 1.372-.176 1.824-.289l-.727-2.91c-.522.13-.827.198-1.097.198v3zm2.001-.345l26.42-10.216-1.082-2.798-26.42 10.216 1.082 2.798zm25.879-13.115h-10.958v3h10.958v-3zm-21.27 21.918c24.035-6.67 47.589-11.4 73.707-15.04l-.414-2.972c-26.233 3.656-49.918 8.412-74.095 15.121l.802 2.89zm73.698-15.04c1.691-.225 3.016-.948 3.869-2.038a4.81 4.81 0 00.966-3.614c-.326-2.45-2.496-4.677-5.715-4.254l.391 2.974c1.406-.184 2.219.69 2.35 1.675.066.497-.053.984-.354 1.37-.292.373-.855.774-1.903.914l.396 2.974zm-.685-6.919h.122v-3h-.122v3zm-.109-2.982c-28.943 4.514-53.258 10.86-75.135 18.43l.981 2.834c21.709-7.511 45.85-13.813 74.616-18.3l-.462-2.964zM13.741 52.242l10.47-1.216-.345-2.98-10.47 1.217.345 2.98zm10.342-1.206l37.376-1.095-.087-2.999-37.377 1.095.088 2.999zm37.386-1.095c2.448-.088 4.26.158 5.431.525.589.184.955.38 1.154.531.21.159.121.176.088-.011-.044-.242.081-.366.03-.31-.075.084-.302.273-.814.487-1.014.426-2.766.8-5.384.888l.1 2.998c2.8-.094 4.96-.496 6.445-1.12.738-.31 1.408-.714 1.889-1.252.504-.564.844-1.338.687-2.219-.148-.825-.68-1.435-1.23-1.852-.561-.425-1.273-.754-2.068-1.003-1.595-.5-3.77-.755-6.435-.66l.107 2.998zm.514 2.11c-4.418.122-21.28.85-35.96.486l-.073 2.999c14.783.366 31.767-.366 36.116-.487l-.083-2.999zm-35.952.486c-4.032-.12-6.684-.39-8.307-.624a23.632 23.632 0 01-1.703-.3 8.613 8.613 0 01-.418-.102l-.007-.002h.003l.002.002h.003s.002.001-.453 1.43l-.453 1.43h.001l.003.002.006.002a2.87 2.87 0 00.188.053c.111.03.268.069.478.115.418.093 1.044.213 1.922.34 1.755.252 4.521.53 8.646.652l.09-2.998zm-9.664-.474l-1.583-2.19-2.431 1.758 1.582 2.19 2.432-1.758zm76.01 15.243c4.341-.831 13.116-1.709 21.816-2.149 4.338-.219 8.629-.328 12.309-.27 3.715.06 6.694.288 8.472.704l.684-2.92c-2.118-.497-5.378-.724-9.109-.783-3.766-.06-8.126.052-12.508.273-8.74.442-17.68 1.328-22.227 2.199l.564 2.946zm42.599-1.715c.705.165 1.143.44 1.362.662.214.216.155.297.166.237.008-.045-.002.161-.524.448-.521.287-1.426.572-2.851.683l.235 2.991c1.68-.131 3.043-.485 4.062-1.045 1.019-.561 1.823-1.411 2.029-2.536.209-1.139-.268-2.16-.979-2.883-.706-.716-1.698-1.217-2.819-1.478l-.681 2.921zm-1.844 2.03c-6.18.475-27.103-.486-40.737-3.258l-.598 2.94c13.881 2.823 35.083 3.808 41.565 3.31l-.23-2.992zM2.227 53.834c1.102-.472 3.005-.936 5.429-1.338 2.388-.396 5.17-.714 7.962-.932 2.79-.218 5.568-.334 7.947-.328 2.413.006 4.307.137 5.387.373l.643-2.93c-1.416-.31-3.585-.438-6.023-.443-2.472-.006-5.332.114-8.188.337-2.855.223-5.726.55-8.22.964-2.457.407-4.663.916-6.118 1.54l1.181 2.757zm26.738-2.222c.34.072.52.201.586.268.063.064-.021.013-.001-.151.02-.17.113-.143-.103-.002-.229.15-.707.35-1.571.455l.36 2.978c1.145-.138 2.113-.439 2.85-.92.751-.49 1.33-1.223 1.442-2.153.23-1.906-1.463-3.099-2.946-3.41l-.617 2.935zm-1.095.57c-1.822.228-6.075.324-11.056.157-4.959-.166-10.511-.588-14.918-1.361l-.519 2.954c4.603.808 10.312 1.237 15.337 1.406 5.002.167 9.455.08 11.528-.178l-.372-2.977zm197.42 10.896h3.653v-3h-3.653v3zm3.653 0c.033 0 .042.005.033.002a.132.132 0 01-.043-.03.124.124 0 01-.031-.045c-.004-.01.002-.001.002.032h3c0-1.681-1.282-2.96-2.961-2.96v3zm-.039-.04v7.418h3v-7.419h-3zm0 7.418c0 .033-.006.041-.002.032a.125.125 0 01.031-.044.131.131 0 01.043-.031c.009-.003 0 .002-.033.002v3c1.679 0 2.961-1.278 2.961-2.96h-3zm.039-.04h-3.653v3h3.653v-3zm-3.653 0c-.034 0-.042-.006-.034-.003a.143.143 0 01.044.03.14.14 0 01.031.045c.004.01-.002 0-.002-.032h-3c0 1.681 1.282 2.96 2.961 2.96v-3zm.039.04v-7.419h-3v7.419h3zm0-7.419c0-.033.006-.041.002-.032a.14.14 0 01-.031.044.144.144 0 01-.044.03c-.008.004 0-.001.034-.001v-3c-1.679 0-2.961 1.278-2.961 2.96h3zM8.425 8.07L23.4 41.514l2.738-1.226L11.163 6.843 8.425 8.07zm16.344 34.332h14.366v-3H24.77v3zm14.366 0c2.354 0 3.867-2.599 2.611-4.606l-2.543 1.591a.071.071 0 01-.01-.035c0-.005.001.004-.008.02a.074.074 0 01-.023.026.016.016 0 01-.005.002.08.08 0 01-.022.002v3zm2.624-4.585L24.592 9.356l-2.568 1.55 17.166 28.46 2.569-1.55zM24.573 9.326c-1.084-1.702-2.867-2.883-5.04-2.883v3c.994 0 1.89.52 2.51 1.495l2.53-1.612zM19.61 6.444l-9.74-.486-.15 2.996 9.74.487.15-2.997zm16.117 23.714h-2.313v3h2.313v-3zm-8.278-14.23h-2.313v3h2.313v-3z" fill="#2C373D"/></svg>