<svg width="308" height="68" fill="none" xmlns="http://www.w3.org/2000/svg"><path d="M145.697 46.969l-3.856 5.735h-26.052l-2.974 3.878h-2.148a2.588 2.588 0 01-2.368-1.584c-.386-.82-.881-1.639-1.542-2.294a8.932 8.932 0 00-6.554-2.895c-2.59 0-4.902 1.092-6.555 2.895a8.281 8.281 0 00-1.542 2.348 2.464 2.464 0 01-2.313 1.53h-.055c-1.047 0-1.928-.656-2.314-1.584a7.666 7.666 0 00-1.431-2.294c-1.598-1.912-4.021-3.059-6.72-3.059a8.862 8.862 0 00-6.72 3.059c-.605.71-1.156 1.584-1.486 2.458-.33.873-1.157 1.42-2.093 1.42h-1.818l-2.423-3.878H47.328v-5.735h30.623v-3.715h7.16v3.715h48.854v-3.715h6.885v3.715h4.847z" fill="#fff" stroke="#2C373D" stroke-width="2" stroke-miterlimit="10" stroke-linejoin="round"/><path d="M228.319 57.216c.11 2.198-1.651 4.067-3.906 4.067h-5.171v-3.407c0-5.22-4.291-9.672-9.517-9.562-5.061.11-9.187 4.231-9.187 9.342v3.627h-29.871V59.36c0-5.221-4.291-9.672-9.517-9.617-5.061.11-9.187 4.231-9.187 9.342v.604c0 .88-.715 1.539-1.54 1.539h-1.155V51.062c0-2.473 2.035-4.506 4.51-4.506h38.398l.55-32.752c0-.825.716-1.54 1.541-1.54l16.283 1.32c9.132.77 15.788 8.078 16.558 17.2l1.211 26.432zm-5.391-23.135c.715 0 1.21-.66 1.1-1.319l-1.1-5.33c-.495-2.418-2.641-4.176-5.061-4.176h-4.566V34.08h9.627z" fill="#fff"/><path d="M224.025 32.762c.166.66-.385 1.32-1.1 1.32h-9.627V23.255h4.566c2.476 0 4.566 1.758 5.061 4.176l1.1 5.33z" fill="#fff"/><path d="M224.467 61.283c2.201 0 4.016-1.869 3.906-4.067l-1.21-26.322c-.825-9.067-7.482-16.431-16.558-17.2l-16.284-1.32c-.825 0-1.54.66-1.54 1.54l-.55 32.751h-38.398c-2.476 0-4.511 2.034-4.511 4.507v10.166h1.155c.88 0 1.541-.715 1.541-1.539v-.604c0-5.111 4.07-9.233 9.186-9.342 5.227-.11 9.517 4.34 9.517 9.616v1.924h29.872v-3.627c0-5.11 4.07-9.232 9.186-9.342 5.226-.11 9.517 4.341 9.517 9.562v3.352h5.171v-.055z" fill="#fff" stroke="#2C373D" stroke-width="2" stroke-miterlimit="10" stroke-linejoin="round"/><path d="M213.298 34.081V23.255h4.566c2.476 0 4.566 1.759 5.061 4.177l1.1 5.33c.165.66-.385 1.32-1.1 1.32h-9.627z" fill="#fff" stroke="#2C373D" stroke-width="2" stroke-miterlimit="10" stroke-linejoin="round"/><path d="M161.246 64.832c3.33 0 6.029-2.841 6.029-6.346s-2.699-6.347-6.029-6.347-6.029 2.841-6.029 6.346 2.699 6.347 6.029 6.347z" stroke="#2C373D" stroke-width="2" stroke-miterlimit="10" stroke-linejoin="round"/><path d="M161.245 61.322a2.855 2.855 0 100-5.71 2.855 2.855 0 000 5.71zm48.866 3.51c3.33 0 6.029-2.841 6.029-6.346s-2.699-6.347-6.029-6.347-6.029 2.841-6.029 6.346 2.699 6.347 6.029 6.347z" stroke="#2C373D" stroke-width="2" stroke-miterlimit="10" stroke-linejoin="round"/><path d="M210.112 61.322a2.856 2.856 0 100-5.712 2.856 2.856 0 000 5.712z" stroke="#2C373D" stroke-width="2" stroke-miterlimit="10" stroke-linejoin="round"/><path d="M187.447.734H48.677a1.981 1.981 0 00-1.984 1.995v39.8c0 1.108.882 1.995 1.984 1.995h138.825a1.982 1.982 0 001.984-1.996V2.73c0-1.108-.937-1.995-2.039-1.995zM84.5 44.524h48.938z" fill="url(#paint0_linear)"/><path d="M53.597 36.908h-1.752c-.379 0-.71-.381-.71-.817V5.359c0-.436.331-.817.71-.817h1.752c.38 0 .71.381.71.817v30.732c0 .436-.283.817-.71.817zm8.108 0h-2.102c-.455 0-.853-.381-.853-.817V5.359c0-.436.398-.817.852-.817h2.103c.455 0 .853.381.853.817v30.732c0 .436-.398.817-.853.817zm7.618 0H67.22c-.455 0-.853-.381-.853-.817V5.359c0-.436.398-.817.853-.817h2.103c.454 0 .852.381.852.817v30.732c0 .436-.398.817-.852.817zm8.247 0h-2.102c-.455 0-.853-.381-.853-.817V5.359c0-.436.398-.817.853-.817h2.102c.455 0 .853.381.853.817v30.732c0 .436-.341.817-.853.817zm8.25.635h-2.102c-.455 0-.853-.39-.853-.834V5.375c0-.444.398-.833.853-.833h2.103c.454 0 .852.389.852.833V36.71c0 .5-.398.834-.852.834zm8.253-.635H91.97c-.455 0-.853-.381-.853-.817V5.359c0-.436.398-.817.853-.817h2.103c.454 0 .852.381.852.817v30.732c0 .436-.398.817-.852.817zm8.392 0h-1.753c-.379 0-.71-.381-.71-.817V5.359c0-.436.331-.817.71-.817h1.753c.379 0 .71.381.71.817v30.732c0 .436-.331.817-.71.817zm8.25 0h-1.753c-.379 0-.71-.381-.71-.817V5.359c0-.436.331-.817.71-.817h1.753c.379 0 .71.381.71.817v30.732c0 .436-.331.817-.71.817zm8.744 0h-2.103c-.454 0-.852-.381-.852-.817V5.359c0-.436.398-.817.852-.817h2.103c.455 0 .853.381.853.817v30.732c0 .436-.398.817-.853.817zm7.615.635h-2.102c-.455 0-.853-.39-.853-.834V5.375c0-.444.398-.833.853-.833h2.102c.455 0 .853.389.853.833V36.71c0 .5-.398.834-.853.834zm8.25-.635h-2.102c-.455 0-.853-.381-.853-.817V5.359c0-.436.398-.817.853-.817h2.102c.455 0 .853.381.853.817v30.732c0 .436-.398.817-.853.817zm7.616.635h-2.103c-.455 0-.853-.39-.853-.834V5.375c0-.444.398-.833.853-.833h2.103c.454 0 .852.389.852.833V36.71c0 .5-.341.834-.852.834zm8.25-.635h-2.103c-.455 0-.853-.381-.853-.817V5.359c0-.436.398-.817.853-.817h2.103c.454 0 .852.381.852.817v30.732c0 .436-.398.817-.852.817zm8.25.635h-2.103c-.455 0-.853-.39-.853-.834V5.375c0-.444.398-.833.853-.833h2.103c.454 0 .852.389.852.833V36.71c0 .5-.341.834-.852.834zm7.757-.635h-1.752c-.379 0-.711-.381-.711-.817V5.359c0-.436.332-.817.711-.817h1.752c.379 0 .711.381.711.817v30.732c0 .49-.332.817-.711.817zm8.11 0h-2.103c-.455 0-.852-.381-.852-.817V5.359c0-.436.397-.817.852-.817h2.103c.455 0 .852.381.852.817v30.732c0 .436-.397.817-.852.817zm8.25 0h-2.103c-.455 0-.852-.381-.852-.817V5.359c0-.436.397-.817.852-.817h2.103c.455 0 .852.381.852.817v30.732c0 .49-.397.817-.852.817z" fill="#fff"/><path d="M100.32 64.832c3.33 0 6.029-2.841 6.029-6.346s-2.699-6.347-6.029-6.347-6.029 2.841-6.029 6.346 2.7 6.347 6.029 6.347z" stroke="#2C373D" stroke-width="2" stroke-miterlimit="10" stroke-linejoin="round"/><path d="M100.319 61.322a2.856 2.856 0 100-5.712 2.856 2.856 0 000 5.712zm-20.942 3.51c3.33 0 6.029-2.841 6.029-6.346s-2.7-6.347-6.03-6.347-6.028 2.841-6.028 6.346 2.699 6.347 6.029 6.347z" stroke="#2C373D" stroke-width="2" stroke-miterlimit="10" stroke-linejoin="round"/><path d="M79.377 61.322a2.856 2.856 0 100-5.712 2.856 2.856 0 000 5.712z" stroke="#2C373D" stroke-width="2" stroke-miterlimit="10" stroke-linejoin="round"/><path d="M306.893 66.101H36.539m-5.711 0H1" stroke="#2C373D" stroke-width="2" stroke-miterlimit="10" stroke-linecap="round" stroke-linejoin="round"/><defs><linearGradient id="paint0_linear" x1="46.663" y1="22.625" x2="189.467" y2="22.625" gradientUnits="userSpaceOnUse"><stop stop-color="#1B75BC"/><stop offset="1" stop-color="#003C5F"/></linearGradient></defs></svg>