<svg width="447" height="1116" fill="none" xmlns="http://www.w3.org/2000/svg"><path d="M6 2h402.802C428.794 2 445 25.51 445 54.511v51.461c0 29.001-16.206 52.511-36.198 52.511H38.198C18.206 158.483 2 181.994 2 210.995v50.936c0 29.001 16.206 52.511 36.198 52.511h370.604c19.992 0 36.198 23.51 36.198 52.511v51.461c0 29.001-16.206 52.511-36.198 52.511H38.198C18.206 470.925 2 494.435 2 523.437v69.052C2 621.49 18.206 645 38.198 645h370.604C428.794 645 445 668.51 445 697.511v51.461c0 29.001-16.206 52.511-36.198 52.511H38.198C18.206 801.483 2 824.994 2 853.995v50.936c0 29.001 16.206 52.511 36.198 52.511h370.604c19.992 0 36.198 23.51 36.198 52.508v51.46c0 29.01-16.206 52.52-36.198 52.52" stroke="url(#paint0_linear)" stroke-opacity=".5" stroke-width="3" stroke-miterlimit="2.613" stroke-linecap="round" stroke-dasharray="4 16"/><defs><linearGradient id="paint0_linear" x1="-63.297" y1="1624.6" x2="769.804" y2="1102.98" gradientUnits="userSpaceOnUse"><stop stop-color="#008DD2"/><stop offset=".505" stop-color="#003C5F"/><stop offset="1" stop-color="#374148"/></linearGradient></defs></svg>