<svg width="31" height="36" fill="none" xmlns="http://www.w3.org/2000/svg"><path d="M15.686 5.81a14.6 14.6 0 0110.385 4.327 14.765 14.765 0 014.301 10.442c0 4.078-1.644 7.771-4.301 10.443a14.6 14.6 0 01-10.385 4.326 14.599 14.599 0 01-10.384-4.325A14.765 14.765 0 011 20.58c0-4.078 1.644-7.77 4.302-10.443A14.6 14.6 0 0115.686 5.81v0zm8.982 5.737a12.628 12.628 0 00-8.982-3.741 12.63 12.63 0 00-8.982 3.74 12.77 12.77 0 00-3.72 9.033c0 3.528 1.422 6.722 3.72 9.033a12.628 12.628 0 008.982 3.741c3.508 0 6.684-1.43 8.982-3.741a12.77 12.77 0 003.72-9.033c0-3.527-1.422-6.72-3.72-9.032z" fill="#374148" stroke="#F1F1F1" stroke-width=".6"/><path d="M13.11 2.995a.995.995 0 01-.991-.997c0-.551.444-.998.992-.998h5.151c.548 0 .992.447.992.998 0 .55-.445.997-.992.997H13.11z" fill="#374148" stroke="#374148" stroke-width=".6"/><path d="M16.678 4.169c0 .55-.444.997-.992.997a.995.995 0 01-.991-.997V1.997c0-.55.444-.997.991-.997.548 0 .992.447.992.997V4.17z" fill="#374148" stroke="#374148" stroke-width=".6"/><path d="M14.694 13.793c0-.551.445-.998.992-.998.548 0 .992.447.992.998v5.789h3.88c.548 0 .992.446.992.997 0 .55-.444.997-.992.997h-4.872a.995.995 0 01-.992-.997v-6.787h0z" fill="#22B0F5" stroke="#F1F1F1" stroke-width=".6"/><path d="M24.368 23.218a.99.99 0 111.898.57 11.102 11.102 0 01-3.993 5.711 10.992 10.992 0 01-6.587 2.194 10.987 10.987 0 01-7.814-3.255 11.11 11.11 0 01-3.237-7.859c0-2.363.746-4.6 2.048-6.44a11.044 11.044 0 015.383-4.055.987.987 0 011.255.615.995.995 0 01-.612 1.262 9.061 9.061 0 00-4.414 3.331 9.146 9.146 0 00-1.677 5.288 9.117 9.117 0 002.656 6.448 9.015 9.015 0 006.412 2.67 9.025 9.025 0 005.41-1.796 9.1 9.1 0 003.272-4.683v0zM15.686 11.46a.995.995 0 01-.991-.997c0-.551.444-.998.991-.998 3.043 0 5.801 1.24 7.801 3.245a11.111 11.111 0 013.247 7.84.991.991 0 01-.988.994.99.99 0 01-.988-.994 9.113 9.113 0 00-2.666-6.43 9.017 9.017 0 00-6.406-2.66z" fill="#0A6397" stroke="#F1F1F1" stroke-width=".6"/></svg>