<svg width="29" height="35" fill="none" xmlns="http://www.w3.org/2000/svg"><path d="M9.652 27.935a.986.986 0 011.34-.398c.48.263.656.866.395 1.349-.205.376-2.45 4.499-2.447 4.5a1.639 1.639 0 01-.655.658v.002a1.624 1.624 0 01-.905.192h-.004a1.628 1.628 0 01-.863-.328 1 1 0 01-.099-.085 1.632 1.632 0 01-.45-.67l-.768-2.124-2.195.498a1.625 1.625 0 01-.921-.057l-.004-.001a1.625 1.625 0 01-.802-.644 1.641 1.641 0 01-.27-.787 1.652 1.652 0 01.2-.906L3.64 24.66a.986.986 0 011.34-.398c.48.262.657.866.396 1.348l-2.075 3.813 1.753-.397a1.633 1.633 0 011.899 1.045l.613 1.697 2.086-3.832h0z" fill="#374148" stroke="#F1F1F1" stroke-width=".6"/><path d="M11.073 14.872a1.001 1.001 0 010-1.41.988.988 0 011.402 0l1.252 1.26 3.111-3.129a.988.988 0 011.403 0c.387.39.387 1.021 0 1.41l-3.813 3.834a.988.988 0 01-1.402 0l-1.953-1.965h0z" fill="#22B0F5" stroke="#F1F1F1" stroke-width=".6"/><path d="M14.413 6.236c2.166 0 4.128.884 5.547 2.312a7.888 7.888 0 012.299 5.579 7.887 7.887 0 01-2.299 5.578 7.8 7.8 0 01-5.547 2.312 7.8 7.8 0 01-5.548-2.312 7.888 7.888 0 01-2.299-5.578 7.89 7.89 0 012.299-5.58 7.8 7.8 0 015.548-2.31zm4.145 3.722a5.827 5.827 0 00-4.145-1.727c-1.62 0-3.085.66-4.146 1.727a5.892 5.892 0 00-1.717 4.168c0 1.628.657 3.102 1.717 4.169a5.828 5.828 0 004.146 1.726c1.619 0 3.085-.66 4.145-1.726a5.893 5.893 0 001.717-4.169 5.893 5.893 0 00-1.717-4.168z" fill="#22B0F5" stroke="#F1F1F1" stroke-width=".6"/><path d="M16.643 1.951l.324.335c.15.157.328.263.517.314.188.05.395.047.606-.013l.447-.128a3.06 3.06 0 011.228-.102c.401.05.793.185 1.17.405h.004c.374.217.685.49.931.818.247.328.424.705.53 1.126l.113.453c.053.213.153.393.288.528l.004.004c.134.136.313.236.525.289l.45.114c.42.107.794.285 1.12.533.326.247.598.56.814.936l.035.067c.197.36.32.732.367 1.113.05.405.016.819-.102 1.236l-.127.45a1.15 1.15 0 00-.012.61c.05.189.155.367.311.519l.334.325a3.105 3.105 0 01.945 2.243 3.106 3.106 0 01-.946 2.242l-.333.326c-.156.152-.261.33-.311.52-.05.19-.048.398.012.61l.127.45c.118.417.151.83.101 1.234-.05.404-.184.797-.402 1.177v.004a3.103 3.103 0 01-.813.936c-.326.248-.7.426-1.12.533l-.45.114c-.212.054-.39.154-.526.29l-.003.003a1.126 1.126 0 00-.288.528l-.114.453a3.119 3.119 0 01-.53 1.126 3.09 3.09 0 01-.93.818l-.067.036a3.058 3.058 0 01-1.107.369 3.07 3.07 0 01-1.228-.103l-.447-.127a1.132 1.132 0 00-.607-.013c-.189.05-.366.157-.517.313l-.323.336a3.07 3.07 0 01-2.23.951 3.07 3.07 0 01-2.23-.951l-.324-.336a1.127 1.127 0 00-.517-.313 1.135 1.135 0 00-.607.013l-.446.127a3.063 3.063 0 01-1.229.102 3.082 3.082 0 01-1.17-.404h-.004a3.095 3.095 0 01-.93-.818 3.117 3.117 0 01-.53-1.126l-.114-.453a1.127 1.127 0 00-.288-.528l-.003-.004a1.117 1.117 0 00-.526-.29l-.45-.114a3.085 3.085 0 01-1.12-.532 3.098 3.098 0 01-.813-.936l-.036-.067a3.1 3.1 0 01-.366-1.114 3.118 3.118 0 01.101-1.235l.127-.45c.06-.212.063-.42.013-.61a1.132 1.132 0 00-.312-.52l-.333-.325a3.107 3.107 0 01-.946-2.243 3.1 3.1 0 01.946-2.242l.333-.326c.156-.152.261-.33.312-.52.05-.189.047-.397-.013-.61l-.127-.449a3.111 3.111 0 01-.101-1.235c.05-.403.184-.797.402-1.176v-.005c.216-.375.488-.688.814-.936a3.07 3.07 0 011.12-.532l.45-.115c.211-.053.39-.153.525-.289l.004-.004a1.12 1.12 0 00.287-.528l.114-.453c.106-.421.283-.798.53-1.126.246-.327.557-.601.93-.818l.067-.035a3.058 3.058 0 011.108-.37c.402-.05.813-.015 1.228.103l.447.128c.211.06.419.063.607.012.188-.05.366-.156.516-.313l.324-.335a3.09 3.09 0 011.018-.707c.377-.16.782-.24 1.212-.24V1a3.07 3.07 0 012.23.95v.001zm-1.095 1.722l-.323-.335a1.133 1.133 0 00-.367-.262 1.132 1.132 0 00-.445-.08V2.99c-.164 0-.313.028-.445.084a1.134 1.134 0 00-.367.262l-.324.336a3.09 3.09 0 01-1.423.85c-.53.143-1.094.14-1.653-.02l-.447-.127a1.14 1.14 0 00-.453-.04c-.132.016-.26.058-.385.124l-.038.023a1.13 1.13 0 00-.341.296c-.086.114-.15.251-.19.41l-.113.452a3.12 3.12 0 01-.81 1.45l-.004.005a3.1 3.1 0 01-1.444.816l-.45.114c-.157.04-.294.104-.408.19a1.14 1.14 0 00-.294.344l-.002-.001c-.078.136-.126.28-.144.425a1.15 1.15 0 00.04.456l.126.45c.159.561.162 1.129.02 1.661a3.115 3.115 0 01-.846 1.432l-.333.325c-.12.117-.207.24-.261.37-.053.126-.08.276-.08.447 0 .17.027.32.08.447.054.13.142.253.26.37l.334.325c.419.408.704.899.846 1.431.142.532.139 1.1-.02 1.662l-.127.45c-.044.157-.057.31-.04.456.017.132.058.262.124.387l.023.037c.081.142.18.257.294.344.114.086.25.15.407.19l.45.114a3.095 3.095 0 011.443.814l.005.005c.389.392.669.887.81 1.452l.114.453c.04.158.103.295.189.41.087.114.2.213.342.295l-.001.002c.136.079.278.127.423.145.145.018.297.005.453-.04l.447-.127a3.073 3.073 0 011.652-.02 3.09 3.09 0 011.424.85l.324.336c.116.12.239.208.367.262.126.054.275.08.445.08.17 0 .319-.026.445-.08.128-.054.251-.142.367-.262l.324-.335a3.09 3.09 0 011.423-.85 3.074 3.074 0 011.652.019l.447.128c.157.044.31.058.454.04a1.11 1.11 0 00.385-.124l.037-.023a1.13 1.13 0 00.342-.296 1.13 1.13 0 00.189-.41l.114-.453a3.122 3.122 0 01.81-1.45l.004-.005c.39-.391.881-.673 1.444-.815l.45-.114c.157-.04.294-.104.407-.19a1.14 1.14 0 00.295-.344h.001c.079-.136.127-.279.145-.425a1.153 1.153 0 00-.04-.456l-.127-.449a3.124 3.124 0 01-.02-1.662 3.115 3.115 0 01.847-1.431l.333-.326c.12-.116.207-.24.26-.37.054-.125.08-.275.08-.446 0-.171-.026-.32-.08-.447a1.14 1.14 0 00-.26-.37l-.333-.325a3.115 3.115 0 01-.846-1.432 3.125 3.125 0 01.02-1.661l.126-.45a1.16 1.16 0 00.04-.456 1.127 1.127 0 00-.123-.387L24 8.56a1.133 1.133 0 00-.294-.343 1.12 1.12 0 00-.408-.19l-.45-.115a3.093 3.093 0 01-1.442-.814l-.005-.005a3.125 3.125 0 01-.81-1.451l-.114-.453a1.133 1.133 0 00-.19-.41 1.138 1.138 0 00-.341-.296l.001-.002a1.12 1.12 0 00-.423-.145 1.132 1.132 0 00-.454.04l-.446.128a3.074 3.074 0 01-1.653.02 3.091 3.091 0 01-1.424-.851v0zm1.89 25.213a.997.997 0 01.395-1.348.986.986 0 011.34.397l2.086 3.832.613-1.697c.14-.39.414-.697.755-.884a1.624 1.624 0 011.144-.161l1.754.397-2.076-3.813a.997.997 0 01.395-1.348.986.986 0 011.341.398l2.436 4.475a1.636 1.636 0 01-.129 1.781 1.62 1.62 0 01-1.668.614l-2.195-.497-.768 2.124c-.11.309-.302.566-.549.754l-.002-.002a1.638 1.638 0 01-1.767.139l-.004-.004a1.637 1.637 0 01-.654-.66l-2.448-4.497h0z" fill="#374148" stroke="#F1F1F1" stroke-width=".6"/></svg>