<svg width="473" height="175" fill="none" xmlns="http://www.w3.org/2000/svg"><path d="M207.984 79.18h116.93" stroke="#074F79" stroke-width="3" stroke-miterlimit="10" stroke-linecap="round" stroke-linejoin="round"/><path d="M366.576 52.2l-23.815 27.907c-1.101 1.274-1.738 2.78-1.97 4.458l-.811 6.543H83.348a.915.915 0 01-.927-.927v-8.51c0-.059 0-.175-.058-.175L71.585 53.242a3.752 3.752 0 013.535-5.095h9.04a.915.915 0 00.926-.926V25.218c0-.521.406-.927.927-.927h7.939a.915.915 0 00.927-.926v-4.342c0-.522.405-.927.927-.927h4.346c.521 0 .927.405.927.927v4.342c0 .521.405.926.927.926h29.551c.521 0 .927.406.927.927V47.22c0 .52.406.926.927.926h6.49c.463 0 .869.348.869.81.406 4.343 4.114 7.76 8.576 7.76h162.01c4.461 0 8.17-3.417 8.575-7.76.058-.462.406-.81.869-.81h43.806c1.97-.058 3.186 2.316 1.97 4.053z" stroke="#074F79" stroke-width="3" stroke-miterlimit="10" stroke-linejoin="round"/><path d="M353.306 58.337a3.243 3.243 0 100-6.485 3.243 3.243 0 100 6.485z" stroke="#074F79" stroke-width="3"/><path d="M217.544 43.225h-25.669c-.695 0-1.216.579-1.216 1.216v8.916c0 .695.579 1.216 1.216 1.216h25.669c.696 0 1.217-.579 1.217-1.216v-8.916c.058-.637-.521-1.216-1.217-1.216zm-30.478-13.26h-25.669c-.695 0-1.217.58-1.217 1.217v8.916c0 .695.58 1.216 1.217 1.216h25.669c.695 0 1.217-.579 1.217-1.216v-8.916c0-.695-.522-1.216-1.217-1.216zm30.478 0h-25.669c-.695 0-1.216.58-1.216 1.217v8.916c0 .695.579 1.216 1.216 1.216h25.669c.696 0 1.217-.579 1.217-1.216v-8.916c.058-.695-.521-1.216-1.217-1.216zm-30.478 13.26h-25.669c-.695 0-1.217.579-1.217 1.216v8.916c0 .695.58 1.216 1.217 1.216h25.669c.695 0 1.217-.579 1.217-1.216v-8.916c0-.637-.522-1.216-1.217-1.216zm114.67-13.26h-12.458c-.695 0-1.216.58-1.216 1.217v22.175c0 .695.579 1.216 1.216 1.216h12.458c.696 0 1.217-.579 1.217-1.216V31.182c0-.695-.521-1.216-1.217-1.216zm-17.73 0h-12.458c-.696 0-1.217.58-1.217 1.217v22.175c0 .695.579 1.216 1.217 1.216h12.458c.695 0 1.216-.579 1.216-1.216V31.182c0-.695-.521-1.216-1.216-1.216zm-17.905 0h-12.458c-.695 0-1.217.58-1.217 1.217v22.175c0 .695.58 1.216 1.217 1.216h12.458c.695 0 1.217-.579 1.217-1.216V31.182c.058-.695-.522-1.216-1.217-1.216zm-17.905 0h-25.669c-.695 0-1.216.58-1.216 1.217v8.916c0 .695.579 1.216 1.216 1.216h25.669c.696 0 1.217-.579 1.217-1.216v-8.916c0-.695-.579-1.216-1.217-1.216zm0 13.26h-25.669c-.695 0-1.216.579-1.216 1.216v8.916c0 .695.579 1.216 1.216 1.216h25.669c.696 0 1.217-.579 1.217-1.216v-8.916c0-.637-.579-1.216-1.217-1.216z" fill="#074F79"/><path d="M128.196 28.403h-4.693v4.69h4.693v-4.69zm-7.301 0h-4.693v4.69h4.693v-4.69zm-7.243.115h-4.693v4.69h4.693v-4.69zm-7.243 0h-4.693v4.69h4.693v-4.69z" stroke="#074F79" stroke-width="3" stroke-miterlimit="10" stroke-linejoin="round"/><path d="M80.972 48.088h41.14m237.336 59.753l-3.071-1.853a10.235 10.235 0 00-10.372-.116l-.637.348c-3.303 1.853-7.301 1.795-10.546-.232-3.129-1.911-7.011-2.084-10.256-.347l-1.506.81c-3.245 1.737-7.127 1.564-10.256-.347l-.116-.058a10.13 10.13 0 00-10.314-.289m168.574 17.133l-3.071-1.853a10.235 10.235 0 00-10.372-.115l-.637.347c-3.303 1.853-7.301 1.795-10.546-.232-3.129-1.91-7.011-2.084-10.256-.347l-1.506.811c-3.245 1.737-7.127 1.563-10.256-.348l-.116-.058a10.132 10.132 0 00-10.314-.289m-269.732 42.888l-1.782-1.223c-1.849-1.262-4.136-1.3-6.019-.077l-.37.229c-1.916 1.224-4.237 1.185-6.12-.152-1.815-1.262-4.068-1.377-5.951-.23l-.874.535c-1.883 1.147-4.136 1.032-5.952-.229l-.067-.038c-1.816-1.3-4.103-1.376-5.986-.191m50.488-50.818l-3.071-1.853a10.233 10.233 0 00-10.372-.116l-.637.347c-3.303 1.853-7.301 1.795-10.546-.231-3.129-1.911-7.011-2.085-10.256-.348l-1.507.811c-3.244 1.737-7.127 1.563-10.256-.348l-.115-.057a10.13 10.13 0 00-10.314-.29m142.962 27.346l-3.071-1.853a10.231 10.231 0 00-10.371-.116l-.638.348c-3.303 1.852-7.301 1.795-10.546-.232-3.129-1.911-7.011-2.084-10.256-.347l-1.506.81c-3.245 1.737-7.127 1.564-10.256-.347l-.116-.058a10.132 10.132 0 00-10.314-.29m101.936 10.641l-3.071-1.853a10.233 10.233 0 00-10.372-.116l-.637.348c-3.303 1.852-7.301 1.794-10.546-.232-3.129-1.911-7.011-2.084-10.256-.347l-1.506.81c-3.245 1.737-7.128 1.563-10.256-.347l-.116-.058a10.13 10.13 0 00-10.314-.29m-104.064 29.305l-1.783-.917a6.829 6.829 0 00-6.018-.058l-.37.172c-1.917.918-4.237.889-6.12-.114-1.816-.946-4.069-1.032-5.952-.172l-.874.401c-1.883.86-4.136.774-5.952-.172l-.067-.029c-1.815-.974-4.102-1.032-5.985-.143m194.061-65.922a10.235 10.235 0 00-10.372-.115l-.638.347c-3.302 1.853-7.301 1.795-10.545-.232-3.129-1.91-7.012-2.084-10.256-.347l-1.507.811m81.12-14.997a10.425 10.425 0 004.693-1.331l.638-.348c3.302-1.853 7.301-1.795 10.545.232 3.129 1.91 7.012 2.084 10.256.347l1.507-.81M108.959 2v22.002" stroke="#074F79" stroke-width="3" stroke-miterlimit="10" stroke-linecap="round" stroke-linejoin="round"/><path d="M409.395 89.719l-28.218-.116c-1.912 0-3.824-.406-5.679-1.042-2.665-.927-5.62-.695-8.17.636l-1.506.811M76.23 90.56a10.234 10.234 0 00-10.37-.116l-.638.348c-3.303 1.852-7.301 1.794-10.546-.232-3.129-1.91-7.011-2.084-10.256-.347l-1.507.81c-3.244 1.737-7.127 1.564-10.256-.347l-.115-.058a10.337 10.337 0 00-8.634-1.042c-1.623.52-3.303.695-4.983.695h-21.15m63.217 12.854l-.637.347c-3.303 1.853-7.301 1.795-10.546-.232-3.129-1.91-7.011-2.084-10.256-.347a6.857 6.857 0 01-3.187.811H16.897" stroke="#074F79" stroke-width="3" stroke-miterlimit="10" stroke-linecap="round" stroke-linejoin="round"/></svg>