<svg width="247" height="76" fill="none" xmlns="http://www.w3.org/2000/svg"><path d="M23.24 70.462h56.853c0 1.955 1.63 3.693 3.588 3.693h43.808c1.957 0 3.587-1.629 3.587-3.584v-.109s21.959.76 35.765-2.716c7.827-2.063 10.544-3.041 18.589-6.191 29.785-11.84 48.156-16.185 48.156-16.185s-12.175-1.847-8.37-10.754c1.957-4.78 14.458-32.804 14.458-32.804l-11.632.869c-4.565.325-8.696 2.498-12.175 5.54-35.981 31.283-32.612 32.695-52.179 32.695-24.893 0-81.964.218-109.575.218-11.958 0-34.46-1.087-41.852 9.776l-5.98 2.28C.956 55.147-2.958 69.377 23.24 70.463z" stroke="#074F79" stroke-width="3" stroke-miterlimit="10" stroke-linejoin="round"/><path d="M10.521 51.561h12.61c.652 0 1.196-.652 1.196-1.412v-1.847c0-.325-.218-.651-.544-.651h-8.262m91.749 14.99l6.631-1.194v-5.758l-6.631-1.086" stroke="#074F79" stroke-width="3" stroke-miterlimit="10" stroke-linejoin="round"/><path d="M89.877 65.466h12.284a6.586 6.586 0 006.631-6.627 6.586 6.586 0 00-6.631-6.626H89.877c-2.392 0-4.24 1.956-4.24 4.237v4.78c-.108 2.28 1.848 4.236 4.24 4.236z" stroke="#074F79" stroke-width="3" stroke-miterlimit="10" stroke-linejoin="round"/><path d="M92.703 52.105h7.718v13.252h-7.718V52.105zm59.679 6.409l-45.221-17.49" stroke="#074F79" stroke-width="3" stroke-miterlimit="10" stroke-linejoin="round"/><path d="M189.669 54.929c-.869-.217-1.739-.109-2.5.108-5.218 2.064-23.915 10.863-44.135 10.754-2.391 0-4.13 2.39-4.022 4.671 0 0 16.741.217 32.286-4.019 10.653-2.824 19.132-6.626 24.024-8.69.652-.326.652-1.303-.109-1.52l-5.544-1.304z" stroke="#074F79" stroke-width="3" stroke-miterlimit="10"/><path d="M129.881 67.746l-1.305-.977c-1.304-.978-2.609-1.412-4.239-1.412H90.094" stroke="#074F79" stroke-width="3" stroke-miterlimit="10" stroke-linecap="round" stroke-linejoin="round"/><path d="M138.36 53.191h-8.914c-.435 0-.869-.108-1.304-.217l-23.589-9.125h9.783m9.566 16.946c-21.524-5.975-42.613-10.211-65.984-13.47-4.892-.652-3.696-6.735.434-6.191h-.108c25.763 4.019 47.396 9.667 66.854 16.402M234.131 45.37l-9.349-1.086-33.373-.978c-9.131-.326-10.218 4.236-.543 4.562 3.913.109 19.023.76 32.177.435 7.283-.217 9.675-.978 9.675-.978l1.413-1.955z" stroke="#074F79" stroke-width="3" stroke-miterlimit="10" stroke-linejoin="round"/><path d="M164.015 58.839c-7.935-1.52-31.633-3.15-38.59-1.52-3.262.76-3.696 4.018 1.848 4.453 5.652.434 24.458-.435 36.742-2.933z" stroke="#074F79" stroke-width="3" stroke-miterlimit="10" stroke-linejoin="round"/><path clip-rule="evenodd" d="M244.783 46.89c-4.565-1.955-20.219-3.041-24.676-2.063-2.066.434-2.5 2.715 1.087 3.15 3.479.434 15.545.326 23.589-1.086z" stroke="#074F79" stroke-width="3" stroke-miterlimit="10" stroke-linejoin="round"/><path d="M45.09 55.038h-3.261c-.761 0-1.305.543-1.305 1.303v6.626c0 .76.544 1.304 1.305 1.304h3.26c.762 0 1.305-.544 1.305-1.304v-6.626c0-.76-.543-1.303-1.304-1.303zM237.499 6.7l-13.371 29.87h-12.827c-1.087 0-1.739-1.194-1.196-2.063l15.328-25.419c.761-1.194 1.957-1.955 3.37-1.955l8.696-.434z" stroke="#074F79" stroke-width="3" stroke-miterlimit="10" stroke-linejoin="round"/><path d="M214.345 28.316h2.066m5.326-12.709h2.065" stroke="#074F79" stroke-width="3" stroke-miterlimit="10" stroke-linecap="round" stroke-linejoin="round"/></svg>